#!OML:ASF F:\VICON\USERDATA\INSTALL\rory3\rory3.ASF
:FULLY-SPECIFIED
:DEGREES
2251
root -1.47086 17.9812 -1.96084 -175.747 227.241 -181.932
lowerback 10.4203 1.97609 -1.30702
upperback 3.14613 2.36812 -1.7012
thorax -2.54287 1.15556 -1.31986
lowerneck 0.896791 -0.604173 -7.12127
upperneck 2.9844 -0.999829 7.31221
head 0.877661 -0.523611 3.63783
rclavicle 5.96354e-016 1.11319e-014
rhumerus -10.1416 24.2863 -86.9843
rradius 142.566
rwrist -22.7573
rhand -31.5443 12.4423
rfingers 7.12502
rthumb -4.80872 -17.4831
lclavicle 5.96354e-016 1.11319e-014
lhumerus -10.1334 -23.8409 85.0527
lradius 138.28
lwrist 18.7951
lhand -9.92058 14.6657
lfingers 7.12502
lthumb 16.0601 44.0202
rfemur -2.7304 18.6725 16.7991
rtibia 40.1809
rfoot -21.2955 -6.31415
rtoes -24.7391
lfemur -33.9511 10.4635 -12.7739
ltibia 58.7248
lfoot -6.92023 1.82865
ltoes -13.9882
2252
root -1.49846 17.9059 -1.97176 -175.278 227.383 -182.734
lowerback 10.4327 2.09635 -0.689555
upperback 3.06779 2.60004 -1.48269
thorax -2.61101 1.27114 -1.47091
lowerneck 0.993674 -0.633949 -7.04894
upperneck 2.76379 -1.03018 7.10466
head 0.789288 -0.540282 3.55
rclavicle 1.23246e-014 -3.18055e-015
rhumerus -10.314 24.37 -87.0384
rradius 142.224
rwrist -22.3337
rhand -31.2114 12.0445
rfingers 7.12502
rthumb -4.48731 -17.888
lclavicle 1.23246e-014 -3.18055e-015
lhumerus -11.1668 -23.7726 85.689
lradius 138.025
lwrist 18.6552
lhand -10.1139 14.1424
lfingers 7.12502
lthumb 15.874 43.5117
rfemur -2.30974 18.2661 17.4486
rtibia 39.8753
rfoot -22.4287 -5.69342
rtoes -23.7472
lfemur -33.7672 11.0553 -12.4646
ltibia 59.1628
lfoot -8.61401 1.38132
ltoes -15.5869
2253
root -1.52136 17.8362 -1.97818 -174.956 227.521 -183.444
lowerback 10.5459 2.13255 -0.0944592
upperback 3.01135 2.71615 -1.29323
thorax -2.71104 1.32784 -1.62901
lowerneck 0.96541 -0.592544 -6.92342
upperneck 2.69124 -0.963939 6.87126
head 0.762765 -0.506473 3.444
rclavicle 6.36111e-015 3.18055e-015
rhumerus -10.4294 24.6559 -87.2284
rradius 141.868
rwrist -21.8905
rhand -30.7216 10.9855
rfingers 7.12502
rthumb -4.01425 -18.9564
lclavicle 6.36111e-015 3.18055e-015
lhumerus -12.2031 -23.5034 86.2731
lradius 137.784
lwrist 18.7372
lhand -10.5696 14.2892
lfingers 7.12502
lthumb 15.4351 43.6929
rfemur -1.76674 17.8198 18.0202
rtibia 39.559
rfoot -23.4409 -5.33551
rtoes -22.3868
lfemur -33.521 11.6489 -12.1774
ltibia 59.6034
lfoot -10.0767 1.54122
ltoes -15.5169
2254
root -1.5424 17.7702 -1.97808 -174.852 227.783 -184.01
lowerback 10.7745 2.21839 0.4301
upperback 2.9983 2.88962 -1.13269
thorax -2.82761 1.41162 -1.78908
lowerneck 0.859856 -0.545231 -6.74362
upperneck 2.69231 -0.885931 6.53516
head 0.771722 -0.46581 3.29259
rclavicle -1.08934e-013 2.22639e-014
rhumerus -10.5441 25.0508 -87.4111
rradius 141.362
rwrist -21.6906
rhand -30.68 11.1009
rfingers 7.12502
rthumb -3.97416 -18.8418
lclavicle -1.08934e-013 2.22639e-014
lhumerus -13.2672 -23.2141 86.992
lradius 137.44
lwrist 18.5427
lhand -10.5583 14.1609
lfingers 7.12502
lthumb 15.446 43.5638
rfemur -1.17184 17.5047 18.469
rtibia 39.3115
rfoot -24.2741 -5.44652
rtoes -21.4683
lfemur -33.1215 12.1559 -11.8767
ltibia 60.0333
lfoot -11.4216 2.45951
ltoes -14.3205
2255
root -1.55746 17.7108 -1.97581 -174.572 227.894 -184.722
lowerback 11.07 2.27014 1.01717
upperback 2.96689 3.03095 -0.905223
thorax -2.99934 1.47775 -1.91516
lowerneck 0.59328 -0.534438 -6.54415
upperneck 2.75115 -0.84981 6.20059
head 0.830725 -0.443782 3.13895
rclavicle -4.69132e-014 1.59028e-015
rhumerus -10.6763 25.4986 -87.4983
rradius 140.772
rwrist -21.9297
rhand -31.1037 12.3647
rfingers 7.12502
rthumb -4.38328 -17.5699
lclavicle -4.69132e-014 1.59028e-015
lhumerus -14.2816 -22.9903 87.7772
lradius 136.939
lwrist 18.3324
lhand -10.42 13.5459
lfingers 7.12502
lthumb 15.5791 42.9384
rfemur -0.741413 16.9676 18.9747
rtibia 39.1337
rfoot -24.8947 -5.42644
rtoes -21.4518
lfemur -32.8926 12.2659 -11.3157
ltibia 60.4749
lfoot -12.4077 2.87879
ltoes -13.3508
2256
root -1.57336 17.6699 -1.96893 -174.125 227.957 -185.335
lowerback 11.1926 2.32488 1.42984
upperback 2.84122 3.16193 -0.681173
thorax -3.18251 1.53861 -1.94095
lowerneck 0.356853 -0.513086 -6.25076
upperneck 2.83132 -0.803936 5.89413
head 0.889955 -0.416824 2.97845
rclavicle -5.63555e-014 2.06736e-014
rhumerus -10.8994 25.8295 -87.6037
rradius 140.196
rwrist -22.1069
rhand -31.231 12.7875
rfingers 7.12502
rthumb -4.50615 -17.1446
lclavicle -5.63555e-014 2.06736e-014
lhumerus -15.4294 -22.73 88.6935
lradius 136.56
lwrist 18.4667
lhand -10.0701 13.5105
lfingers 7.12502
lthumb 15.9161 42.8765
rfemur -0.648541 16.4013 19.3218
rtibia 39.0183
rfoot -25.257 -5.09679
rtoes -21.4463
lfemur -33.0223 12.161 -10.7644
ltibia 60.9457
lfoot -12.8283 2.493
ltoes -12.7061
2257
root -1.5895 17.6367 -1.96149 -173.888 228.037 -185.907
lowerback 11.4815 2.36352 1.75367
upperback 2.79482 3.26351 -0.44736
thorax -3.38059 1.58369 -1.90899
lowerneck 0.110718 -0.434045 -6.07176
upperneck 2.93299 -0.684662 5.71689
head 0.95503 -0.353621 2.8856
rclavicle -6.95746e-016 7.95139e-016
rhumerus -11.1304 26.1267 -87.7627
rradius 139.652
rwrist -21.9676
rhand -30.921 12.3602
rfingers 7.12502
rthumb -4.20684 -17.578
lclavicle -6.95746e-016 7.95139e-016
lhumerus -16.5467 -22.3463 89.6057
lradius 136.27
lwrist 18.6891
lhand -9.55931 13.9229
lfingers 7.12502
lthumb 16.408 43.2489
rfemur -0.350379 16.2006 19.784
rtibia 38.9323
rfoot -25.5254 -5.08791
rtoes -20.9925
lfemur -33.0614 12.0081 -10.1105
ltibia 61.5201
lfoot -12.785 2.12681
ltoes -13.2175
2258
root -1.60507 17.6101 -1.95566 -173.465 227.993 -186.52
lowerback 11.5871 2.34337 2.08924
upperback 2.72584 3.29039 -0.194693
thorax -3.50521 1.59271 -1.84559
lowerneck -0.0631723 -0.354351 -6.05273
upperneck 2.98123 -0.568312 5.64319
head 0.992832 -0.293657 2.85845
rclavicle -6.81831e-014 1.98785e-015
rhumerus -11.4097 26.4867 -87.9661
rradius 139.07
rwrist -21.6424
rhand -30.7803 12.1978
rfingers 7.12502
rthumb -4.07101 -17.743
lclavicle -6.81831e-014 1.98785e-015
lhumerus -17.6303 -21.9185 90.4533
lradius 135.917
lwrist 18.8948
lhand -9.32482 13.4857
lfingers 7.12502
lthumb 16.6337 42.793
rfemur -0.20776 16.1646 20.3132
rtibia 38.8798
rfoot -25.7019 -5.37376
rtoes -21.1764
lfemur -33.3853 11.7519 -9.35277
ltibia 62.2208
lfoot -12.4016 1.94659
ltoes -13.7781
2259
root -1.62476 17.6035 -1.94568 -173.283 227.891 -186.617
lowerback 11.735 2.31628 2.11385
upperback 2.46989 3.27261 -0.0990603
thorax -3.85908 1.57757 -1.77277
lowerneck 0.000202051 -0.281212 -6.01025
upperneck 3.0598 -0.479262 5.7126
head 1.00124 -0.249348 2.87507
rclavicle -5.18828e-014 1.63003e-014
rhumerus -12.1523 26.7713 -88.5025
rradius 138.587
rwrist -21.3202
rhand -30.8955 12.3251
rfingers 7.12502
rthumb -4.18221 -17.6136
lclavicle -5.18828e-014 1.63003e-014
lhumerus -18.8736 -21.6265 91.2025
lradius 135.569
lwrist 19.0069
lhand -9.51132 12.7279
lfingers 7.12502
lthumb 16.4542 42.0501
rfemur -0.244151 16.0096 20.3801
rtibia 38.8636
rfoot -25.6608 -5.39316
rtoes -21.594
lfemur -33.8871 11.3367 -8.96355
ltibia 62.9248
lfoot -11.6658 1.53142
ltoes -14.359
